PathFileType	4	(X/Y/Z)	OpenSim_Sub01_EMGStiffKnee_Accel.trc
DataRate	CameraRate	NumFrames	NumMarkers	Units	OrigDataRate	OrigDataStartFrame	OrigNumFrames
100	100	24	8	m	100	696	5567
Frame#	Time	torso_imu_offset_imu	pelvis_imu_offset_imu	tibia_r_imu_offset_imu	femur_r_imu_offset_imu	tibia_l_imu_offset_imu	femur_l_imu_offset_imu	toes_r_imu_offset_imu	toes_l_imu_offset_imu
				X1	Y1	Z1	X2	Y2	Z2	X3	Y3	Z3	X4	Y4	Z4	X5	Y5	Z5	X6	Y6	Z6	X7	Y7	Z7	X8		Y8	Z8	

696	6.95000000	8.70018833	0.33308917	5.94986938	9.31294593	-0.74541949	2.23247696	11.08327137	5.04493936	0.42845663	7.55181945	0.49227532	1.78905976	9.70784833	-2.70707394	-0.56377285	9.77344777	1.06590437	-2.08755966	13.77489767	-2.59012172	10.04641896	5.53312996	1.04089396	10.82970812
697	6.96000000	8.83067127	0.41723245	5.90659285	9.42994876	-0.65831214	2.14121653	11.62528959	6.89345970	0.10843005	7.73025448	0.29210091	1.79347197	9.72225690	-2.62687866	-0.67264515	9.88077596	0.72536161	-1.88726970	14.12691255	-2.58875857	9.30075977	5.32845159	1.17001821	10.95835748
698	6.97000000	8.94372096	0.48807762	5.84493689	9.51109635	-0.58748854	2.07009280	11.41103716	7.51323558	0.46163306	7.80249931	-0.35560039	1.84513352	9.81015731	-2.72976120	-0.74372543	9.98624507	0.45727667	-1.67822074	14.66189000	-2.36841086	8.27526295	5.33670343	1.19037718	10.97768614
699	6.98000000	9.03788917	0.53454283	5.79187498	9.53395538	-0.55104987	2.01838051	10.57312828	6.80927890	1.21657152	7.82297872	-1.36543629	1.85115316	9.93758055	-2.96711776	-0.77756466	10.04894023	0.31637482	-1.49208704	15.49754855	-2.05855654	7.08439604	5.51475528	1.12607802	10.90589630
700	6.99000000	9.12583024	0.55744632	5.78062172	9.47993982	-0.56198143	1.96743954	9.64956655	5.52759553	1.53784567	7.95571545	-2.45640283	1.64086329	9.98981641	-3.10204677	-0.82428890	9.97005515	0.28645164	-1.33130683	16.70055209	-1.88908494	5.96334690	5.63333323	1.12159532	10.85238029
701	7	9.21793099	0.56144753	5.82279511	9.34922407	-0.61590866	1.90829206	9.10328560	4.35845662	0.94266202	8.29074084	-3.42813403	1.12074510	9.92188817	-2.99380149	-0.90431005	9.73315991	0.33942817	-1.20220530	18.20242601	-1.93565223	4.94256414	5.55082463	1.25230976	10.89036326
702	7.01000000	9.31676252	0.56171011	5.86536352	9.19743357	-0.65726464	1.86204028	9.14316847	3.76224031	0.03907141	8.68984948	-4.33482487	0.43246608	9.90219822	-2.80174428	-0.94595745	9.57102452	0.41736266	-1.12489211	19.53704460	-1.80794793	3.43490245	5.40032354	1.37909449	10.97863232
703	7.02000000	9.42385861	0.57425810	5.84814628	9.08820460	-0.62480400	1.85263201	9.88916754	4.10875629	-0.40912226	8.98106884	-5.26980821	-0.24000419	10.12143683	-2.72624042	-0.86559181	9.73989443	0.46152501	-1.12003187	20.22284742	-1.06306522	0.79071624	5.35456856	1.33497760	11.05772912
704	7.03000000	9.54685303	0.59893062	5.78283970	9.05163823	-0.51393474	1.86337952	10.83338002	5.04862259	-0.32532292	9.11856929	-6.20781292	-0.73035615	10.51349106	-2.75095150	-0.65522729	10.15788560	0.48400184	-1.17845938	20.64739533	0.23983931	-2.86630443	5.41954458	1.12976073	11.11177343
705	7.04000000	9.69806189	0.62311115	5.73644697	9.09202386	-0.36368275	1.84631497	10.98493351	5.67909445	-0.16187709	9.15361063	-7.03227846	-0.88592720	10.81464477	-2.69277697	-0.36511905	10.48290483	0.55138098	-1.26804880	21.86679864	1.65525914	-6.81721078	5.47290131	0.90928844	11.15842853
706	7.05000000	9.87210368	0.63858441	5.74522634	9.21802276	-0.22215751	1.75424815	9.81096758	5.44462950	-0.29011050	9.11918451	-7.64048422	-0.62369302	10.86810646	-2.43968546	-0.05082708	10.47714772	0.71357551	-1.35928326	24.28835390	2.91278689	-10.40282446	5.43168881	0.77285696	11.21226265
707	7.06000000	10.01065181	0.65116510	5.74985266	9.45325981	-0.16112591	1.54469035	8.17648436	4.86366643	-0.80017194	8.98657916	-7.97781152	-0.06651086	10.84990671	-2.10356857	0.22077735	10.23258492	0.96678491	-1.43215335	26.34035789	4.29183929	-13.18706905	5.33984153	0.67104947	11.27608350
708	7.07000000	10.05754827	0.66640111	5.68059272	9.82423671	-0.24290321	1.19250038	7.16490892	4.59335287	-1.69744052	8.73812754	-7.99122966	0.61895737	10.98263469	-1.83215218	0.38460273	9.90433959	1.29056747	-1.47025456	26.16645197	6.06616348	-14.73233885	5.26175737	0.53526640	11.35045434
709	7.08000000	10.13555206	0.64703475	5.57640173	10.35910485	-0.32293508	0.91910066	7.26084361	4.39524925	-2.49674331	8.69212231	-7.51839810	1.18015758	11.26480791	-1.68988415	0.43347961	9.68018618	1.56407514	-1.48482080	23.12573718	6.90362722	-13.96095161	5.21701256	0.42128060	11.43488950
710	7.09000000	10.50504761	0.52287478	5.55986446	11.08724065	-0.09754543	1.13555245	8.48780990	3.34178494	-2.33561785	9.42517818	-6.31292137	1.29858636	11.52252993	-1.67709436	0.40482044	9.77296857	1.58924830	-1.50837356	17.51361521	4.23725470	-9.30348131	5.19068033	0.48056113	11.52809489
711	7.10000000	11.29027524	0.24711897	5.70395647	11.97843796	0.57264941	2.03712144	10.71688785	0.87747710	-0.79095846	11.12193307	-4.24831615	0.88045951	11.67947654	-1.77867812	0.32840876	10.30905836	1.27424844	-1.58911864	10.49541566	-2.71956146	-0.48949227	5.16805592	0.80608647	11.62741285
712	7.11000000	12.20041435	-0.15501907	5.92785114	12.82535199	1.32668854	3.16335855	13.40143258	-2.39485345	1.22598822	12.78255173	-1.56083332	0.50476919	11.96243030	-1.93856896	0.20795189	11.15596555	0.84876630	-1.82023957	5.74982421	-9.36881794	8.85401660	5.13773155	1.30972032	11.72619587
713	7.12000000	12.88371583	-0.64122163	6.12366632	13.39851223	1.73591558	3.96142482	15.89529683	-5.61146918	2.59327034	13.25766812	1.40102569	0.80077505	12.62333972	-2.09269977	0.04564386	12.12712766	0.58600621	-2.28911367	7.05510977	-10.48990008	14.60663383	5.09217227	1.86760481	11.81401424
714	7.13000000	13.22499296	-1.11246852	6.20417083	13.62742221	1.74291354	4.31003838	17.21908583	-7.20890148	2.72754353	12.43724464	3.61263504	1.28870394	13.45218977	-2.17060744	-0.10682649	12.94301848	0.52077898	-2.87181309	12.72659918	-6.44218538	16.04698068	5.07267201	2.32242108	11.83488373
715	7.14000000	13.29115286	-1.42615196	6.09807317	13.56395422	1.57599727	4.42009570	16.13756015	-5.08611668	1.46041564	11.01130948	3.52959330	0.63564228	13.88350478	-2.09692320	-0.15970439	13.25265694	0.50442653	-3.28181060	16.87586173	-1.87947856	15.07002260	5.15809968	2.49120177	11.69779576
716	7.15000000	13.13739610	-1.52088899	5.79098408	13.25021029	1.40589601	4.46431307	12.32448536	1.42630247	-0.92642054	9.67548565	0.53142714	-1.72343106	13.55479593	-1.82004666	-0.06913727	12.84752471	0.44571814	-3.31303402	15.66417587	-0.15695574	13.32230282	5.41036634	2.33603161	11.36880188
717	7.16000000	12.77021972	-1.57998146	5.43637645	12.68990758	1.21038783	4.47656741	8.17421956	8.70274821	-2.84559700	9.08086758	-3.21722763	-4.00659500	12.73390356	-1.35937809	0.06942310	11.94788212	0.43808756	-3.01090522	11.66468535	-0.44277444	11.51221637	5.83812199	2.25196674	10.98618037
718	7.17000000	12.19150133	-1.81761862	5.20816802	11.88588097	0.93864657	4.46642109	6.41155674	12.55258507	-2.60545375	9.79728255	-5.16290192	-4.14217025	11.78997418	-0.75625570	0.14920256	10.85102613	0.59690054	-2.46997051	8.46435462	-1.18598298	10.14995378	6.45384665	2.66512360	10.71984190
719	7.18000000	11.46873239	-2.23325539	5.12181479	10.93395262	0.64562627	4.46370766	7.17928537	12.21253820	-0.56586137	11.30174564	-4.63881428	-2.21546738	10.86423889	-0.18385572	0.27938433	9.82076758	0.85483079	-1.82408403	7.08198780	-1.65868412	9.37529192	7.47467162	3.26859092	10.73655910
